<svg width="180" height="242" viewBox="0 0 180 242" fill="none" xmlns="http://www.w3.org/2000/svg">
<path d="M85.8488 0C59.1563 0 31.3865 0.093495 14.903 0.160547C6.64884 0.194123 0 6.89617 0 15.1504V226.332C0 234.616 6.71572 241.332 15 241.332H28.8757C37.1678 241.332 43.8846 234.602 43.9196 226.31C44.0243 201.46 44.4149 178.261 44.4955 168.773C83.6332 182.053 115.726 176.888 133.162 170.303C139.102 168.059 141.881 161.579 140.276 155.435C125.373 98.3531 94.1794 72.5043 76.5752 61.5903C73.9513 59.9635 71.099 63.0686 72.6598 65.7323C91.8812 98.5366 103.644 141 83.8488 141C57.3488 141 46.7021 118.198 42.3488 96C39.0989 79.4282 37.3575 67.2573 33.147 50.0867C30.7449 40.2907 38.0736 30.6038 48.114 31.5649C125.833 39.0046 153.262 83.2709 161.062 121.094C163.459 132.717 174.418 136.651 177.858 125.293C179.111 121.155 179.897 116.773 179.897 112.405V88.5C179.897 37.1685 127.464 0 85.8488 0Z" fill="white"/>
</svg>
